<svg xmlns="http://www.w3.org/2000/svg" width="40.991" height="36.873" viewBox="0 0 40.991 36.873">
  <g id="Group_1236" data-name="Group 1236" transform="translate(-517.35 -946.25)">
    <g id="Group_1233" data-name="Group 1233">
      <g id="save-money" transform="translate(516.99 936.596)">
        <path id="Path_1495" data-name="Path 1495" d="M36.161,329.4l-5.978,2.825a4.869,4.869,0,0,0-4.151-2.562l-5.519-.152A5.83,5.83,0,0,1,18,328.86l-.562-.291a9.9,9.9,0,0,0-9.175.01l.035-1.272a.763.763,0,0,0-.742-.784l-6.052-.167a.763.763,0,0,0-.784.742L.36,340.379a.763.763,0,0,0,.742.784l6.052.167h.021a.763.763,0,0,0,.763-.742l.018-.635,1.572-.842a2.7,2.7,0,0,1,2.013-.22l9.388,2.635.05.012a10.051,10.051,0,0,0,2.063.213,10.183,10.183,0,0,0,4.254-.928.708.708,0,0,0,.095-.052L41,331.964a.764.764,0,0,0,.25-1.017,3.855,3.855,0,0,0-5.091-1.551ZM1.907,339.658,2.23,327.9l4.526.124-.323,11.755Zm24.7-.2a8.653,8.653,0,0,1-5.292.591l-9.363-2.628a4.22,4.22,0,0,0-3.146.344l-.8.43.215-7.816a8.389,8.389,0,0,1,8.522-.455l.562.291a7.37,7.37,0,0,0,3.168.818l5.519.152a3.347,3.347,0,0,1,3.181,2.667l-8.221-.227a.763.763,0,1,0-.042,1.526l9.072.25H30a.763.763,0,0,0,.762-.742,4.843,4.843,0,0,0-.074-.99l6.132-2.9.018-.009a2.332,2.332,0,0,1,2.637.369Zm0,0" transform="translate(0 -295.222)" fill="#5f4687"/>
      </g>
    </g>
    <g id="Group_1234" data-name="Group 1234">
      <line id="Line_170" data-name="Line 170" x2="18" transform="translate(529 965)" fill="none" stroke="#5f4687" stroke-linecap="round" stroke-linejoin="round" stroke-width="1.5"/>
      <line id="Line_172" data-name="Line 172" y2="11" transform="translate(530 954)" fill="none" stroke="#5f4687" stroke-linecap="round" stroke-linejoin="round" stroke-width="1.5"/>
      <line id="Line_173" data-name="Line 173" y2="11" transform="translate(546 954)" fill="none" stroke="#5f4687" stroke-linecap="round" stroke-linejoin="round" stroke-width="1.5"/>
      <line id="Line_174" data-name="Line 174" y2="3" transform="translate(534 958)" fill="none" stroke="#5f4687" stroke-linecap="round" stroke-linejoin="round" stroke-width="1.5"/>
      <line id="Line_175" data-name="Line 175" y2="3" transform="translate(538 958)" fill="none" stroke="#5f4687" stroke-linecap="round" stroke-linejoin="round" stroke-width="1.5"/>
      <line id="Line_176" data-name="Line 176" y2="3" transform="translate(542 958)" fill="none" stroke="#5f4687" stroke-linecap="round" stroke-linejoin="round" stroke-width="1.5"/>
      <line id="Line_171" data-name="Line 171" x2="18" transform="translate(529 954)" fill="none" stroke="#5f4687" stroke-linecap="round" stroke-linejoin="round" stroke-width="1.5"/>
      <path id="Path_1503" data-name="Path 1503" d="M5,6l7-3,7,3" transform="translate(526 944)" fill="none" stroke="#5f4687" stroke-linecap="round" stroke-linejoin="round" stroke-width="1.5"/>
    </g>
  </g>
</svg>
