<svg id="save-money" xmlns="http://www.w3.org/2000/svg" width="40.991" height="36.368" viewBox="0 0 40.991 36.368">
  <path id="Path_1493" data-name="Path 1493" d="M189.361,158.369a.727.727,0,0,0-.262-.009,1.735,1.735,0,0,1-1.535-1.72.763.763,0,1,0-1.526,0,3.265,3.265,0,0,0,2.4,3.144v.763a.763.763,0,0,0,1.526,0v-.717a3.259,3.259,0,0,0-.668-6.449,1.733,1.733,0,1,1,1.733-1.733.763.763,0,0,0,1.526,0,3.265,3.265,0,0,0-2.591-3.19v-.695a.763.763,0,0,0-1.526,0v.741a3.259,3.259,0,0,0,.859,6.4,1.732,1.732,0,0,1,.063,3.462Zm0,0" transform="translate(-168.325 -143.136)" fill="#5f4687"/>
  <path id="Path_1494" data-name="Path 1494" d="M104.2,117.559a11.067,11.067,0,1,0,11.067-11.067A11.067,11.067,0,0,0,104.2,117.559Zm11.067-9.541a9.541,9.541,0,1,1-9.541,9.541A9.54,9.54,0,0,1,115.262,108.018Zm0,0" transform="translate(-94.289 -106.492)" fill="#5f4687"/>
  <path id="Path_1495" data-name="Path 1495" d="M36.161,329.4l-5.978,2.825a4.869,4.869,0,0,0-4.151-2.562l-5.519-.152A5.83,5.83,0,0,1,18,328.86l-.562-.291a9.9,9.9,0,0,0-9.175.01l.035-1.272a.763.763,0,0,0-.742-.784l-6.052-.167a.763.763,0,0,0-.784.742L.36,340.379a.763.763,0,0,0,.742.784l6.052.167h.021a.763.763,0,0,0,.763-.742l.018-.635,1.572-.842a2.7,2.7,0,0,1,2.013-.22l9.388,2.635.05.012a10.051,10.051,0,0,0,2.063.213,10.183,10.183,0,0,0,4.254-.928.708.708,0,0,0,.095-.052L41,331.964a.764.764,0,0,0,.25-1.017,3.855,3.855,0,0,0-5.091-1.551ZM1.907,339.658,2.23,327.9l4.526.124-.323,11.755Zm24.7-.2a8.653,8.653,0,0,1-5.292.591l-9.363-2.628a4.22,4.22,0,0,0-3.146.344l-.8.43.215-7.816a8.389,8.389,0,0,1,8.522-.455l.562.291a7.37,7.37,0,0,0,3.168.818l5.519.152a3.347,3.347,0,0,1,3.181,2.667l-8.221-.227a.763.763,0,1,0-.042,1.526l9.072.25H30a.763.763,0,0,0,.762-.742,4.843,4.843,0,0,0-.074-.99l6.132-2.9.018-.009a2.332,2.332,0,0,1,2.637.369Zm0,0" transform="translate(-0.36 -305.381)" fill="#5f4687"/>
</svg>
